
        <svg xmlns="http://www.w3.org/2000/svg" xmlns:xlink="http://www.w3.org/1999/xlink" version="1.1" width="3160.0389555785237" height="1014.067533556745" viewBox="0 -18.32446041374097 3160.0389555785237 1014.067533556745">
			
			<g transform="scale(8.001947778926187) translate(10, 10)">
				<defs id="SvgjsDefs2167"/><g id="SvgjsG2168" featureKey="nYIUkx-0" transform="matrix(1.044359203625037,0,0,1.044359203625037,9.827680740116682,-2.291666666666668)" fill="#fff"><g xmlns="http://www.w3.org/2000/svg"><g><path d="M31.943,4.695l-6.242,8.612l-10.767,3.23l-2.368,3.23l-1.84-0.42C4.133,27.814,0.165,38.435,0.165,50    c0,4.251,0.588,8.355,1.592,12.294l10.158,8.296l-3.033,7.602C17.886,91.354,33.011,100,50.165,100    c25.729,0,46.897-19.449,49.67-44.439l-4.147-8.014l-6.68,5.602l-1.281,6.891L81.689,47.98l-7.75-1.939l-1.502,4.521l-8.613,5.388    l5.379,1.505l-8.18,12.492l-0.435,9.042l-6.675,10.985l-7.112,1.721c0,0-4.736-13.135-4.517-13.782    c0.214-0.647-0.862-14.858-1.506-15.289c-0.647-0.433-12.706-1.505-12.706-1.505l-4.955-13.354l8.395-10.338l-2.368-5.169    l4.097-3.23l7.751-6.674l-1.515-3.445l8.404-7.756l7.327,1.725l22.135-4.804C69.52,2.985,60.193,0,50.165,0    C42.628,0,35.52,1.711,29.116,4.695H31.943z M50.041,5.555l-4.744,3.232l-1.935-3.232H50.041z M24.839,16.537l3.449-1.935    l0.858,2.368L24.839,16.537z M34.246,19.05l2.518,5.521l-3.247,1.828l-2.866-1.175l1.133-2.561l0.442-3.037L34.246,19.05z"/><polygon points="33.243,36.994 40.132,36.423 41.312,38.727 48.428,39.658 56.434,40.992 58.079,36.543 49.582,36.054     45.85,31.829 46.729,34.84 44.297,36.852 44.297,35.415 39.167,31.782   "/><polygon points="49.393,15.335 45.811,17.484 45.099,20.346 42.375,23.207 50.242,21.345   "/><polygon points="61.215,31.658 54.575,28.458 52.945,32.79 60.078,33.369   "/></g></g></g><g id="SvgjsG2169" featureKey="PXhRQw-0" transform="matrix(2.2178052761939533,0,0,2.2178052761939533,128.7833222756198,21.403294489637126)" fill="#fff"><path d="M12.881 17.4609 l-7.4805 0 l-1.2598 2.5391 l-4.043 0 l7.0215 -13.418 l4.043 0 l7.0215 13.418 l-4.043 0 z M6.6992 14.8437 l4.9023 0 l-2.4414 -4.9414 z M24.00395 9.443 l0 2.334 l8.7207 0 l0 2.8613 l-8.7207 0 l0 5.3613 l-3.623 0 l0 -13.418 l12.822 0 l0 2.8613 l-9.1992 0 z M39.92191875 20 l-3.623 0 l0 -13.418 l9.082 0 c0.97656 0 1.805 0.10091 2.4854 0.30273 s1.2337 0.48828 1.6602 0.85938 s0.73568 0.81868 0.92774 1.3428 s0.28809 1.1084 0.28809 1.7529 c0 0.56641 -0.079756 1.0612 -0.23926 1.4844 s-0.37435 0.78613 -0.64453 1.0889 s-0.58432 0.55827 -0.94239 0.7666 s-0.73568 0.38086 -1.1328 0.51758 l4.3945 5.3027 l-4.2383 0 l-4.0625 -4.9414 l-3.9551 0 l0 4.9414 z M47.08021875 10.8203 c0 -0.26042 -0.03418 -0.48174 -0.10254 -0.66403 s-0.18718 -0.33041 -0.35645 -0.44435 s-0.39551 -0.19694 -0.67871 -0.24902 s-0.6364 -0.078125 -1.0596 -0.078125 l-4.9609 0 l0 2.8711 l4.9609 0 c0.42317 0 0.77637 -0.026045 1.0596 -0.078125 s0.50944 -0.13509 0.67871 -0.24902 s0.28809 -0.26205 0.35645 -0.44435 s0.10254 -0.40365 0.10254 -0.66407 z M54.77538125 20 l0 -13.418 l3.623 0 l0 13.418 l-3.623 0 z M66.220746875 9.443 l0 2.334 l8.7207 0 l0 2.8613 l-8.7207 0 l0 5.3613 l-3.623 0 l0 -13.418 l12.822 0 l0 2.8613 l-9.1992 0 z M78.515615625 20 l0 -13.418 l13.584 0 l0 2.8613 l-9.8633 0 l0 2.2168 l9.3555 0 l0 2.8613 l-9.3555 0 l0 2.6172 l10 0 l0 2.8613 l-13.721 0 z M104.6098125 13.1152 l6.3672 6.8848 l-4.3457 0 l-4.1992 -4.5215 l-4.1797 4.5215 l-4.3359 0 l6.3574 -6.8848 l-6.0449 -6.5332 l4.3457 0 l3.8574 4.1992 l3.877 -4.1992 l4.3457 0 z"/></g><g id="SvgjsG2170" featureKey="mlRtrp-0" transform="matrix(0.23933323358150502,0,0,0.23933323358150502,132.97661734283994,74.5065126314563)" fill="#fff"><path d="M12.881 17.4609 l-7.4805 0 l-1.2598 2.5391 l-4.043 0 l7.0215 -13.418 l4.043 0 l7.0215 13.418 l-4.043 0 z M6.6992 14.8437 l4.9023 0 l-2.4414 -4.9414 z M40.755903125 9.443 l0 2.334 l8.7207 0 l0 2.8613 l-8.7207 0 l0 5.3613 l-3.623 0 l0 -13.418 l12.822 0 l0 2.8613 l-9.1992 0 z M73.425825 20 l-3.623 0 l0 -13.418 l9.082 0 c0.97656 0 1.805 0.10091 2.4854 0.30273 s1.2337 0.48828 1.6602 0.85938 s0.73568 0.81868 0.92774 1.3428 s0.28809 1.1084 0.28809 1.7529 c0 0.56641 -0.079756 1.0612 -0.23926 1.4844 s-0.37435 0.78613 -0.64453 1.0889 s-0.58432 0.55827 -0.94239 0.7666 s-0.73568 0.38086 -1.1328 0.51758 l4.3945 5.3027 l-4.2383 0 l-4.0625 -4.9414 l-3.9551 0 l0 4.9414 z M80.584125 10.8203 c0 -0.26042 -0.03418 -0.48174 -0.10254 -0.66403 s-0.18718 -0.33041 -0.35645 -0.44435 s-0.39551 -0.19694 -0.67871 -0.24902 s-0.6364 -0.078125 -1.0596 -0.078125 l-4.9609 0 l0 2.8711 l4.9609 0 c0.42317 0 0.77637 -0.026045 1.0596 -0.078125 s0.50944 -0.13509 0.67871 -0.24902 s0.28809 -0.26205 0.35645 -0.44435 s0.10254 -0.40365 0.10254 -0.66407 z M105.031240625 20 l0 -13.418 l3.623 0 l0 13.418 l-3.623 0 z M144.390859375 19.08203 c-0.46875 0.19531 -0.94076 0.37102 -1.416 0.52727 s-0.9668 0.29134 -1.4746 0.40527 s-1.0433 0.2002 -1.6064 0.25879 s-1.167 0.087891 -1.8115 0.087891 c-1.3672 0 -2.6253 -0.14648 -3.7744 -0.43945 s-2.1387 -0.73405 -2.9688 -1.3232 s-1.4763 -1.3249 -1.9385 -2.207 s-0.69336 -1.9124 -0.69336 -3.0908 s0.23112 -2.2087 0.69336 -3.0908 s1.1084 -1.6179 1.9385 -2.207 s1.8196 -1.0303 2.9688 -1.3232 s2.4072 -0.43945 3.7744 -0.43945 c0.64453 0 1.2483 0.029297 1.8115 0.087891 s1.0986 0.14485 1.6064 0.25879 s0.99932 0.24902 1.4746 0.40527 s0.94727 0.33203 1.416 0.52734 l0 3.2617 c-0.37109 -0.20183 -0.76172 -0.40202 -1.1719 -0.60059 s-0.86263 -0.3776 -1.3574 -0.5371 s-1.0384 -0.28971 -1.6309 -0.39062 s-1.2598 -0.15137 -2.002 -0.15137 c-1.1394 0 -2.085 0.11719 -2.8369 0.35156 s-1.3525 0.54688 -1.8018 0.9375 s-0.76497 0.83821 -0.94727 1.3428 s-0.27344 1.0271 -0.27344 1.5674 c0 0.35808 0.039063 0.71127 0.11719 1.0596 s0.20833 0.67709 0.39063 0.98633 s0.41992 0.59408 0.71289 0.8545 s0.65755 0.48503 1.0938 0.67383 s0.94564 0.33691 1.5283 0.44434 s1.2549 0.16113 2.0166 0.16113 c0.74219 0 1.4095 -0.047197 2.002 -0.1416 s1.136 -0.21973 1.6309 -0.37598 s0.94727 -0.33366 1.3574 -0.53223 s0.80078 -0.40201 1.1719 -0.61034 l0 3.2617 l0 0 z M175.302875 17.4609 l-7.4805 0 l-1.2598 2.5391 l-4.043 0 l7.0215 -13.418 l4.043 0 l7.0215 13.418 l-4.043 0 z M169.121075 14.8437 l4.9023 0 l-2.4414 -4.9414 z M198.353518125 11.9434 l-0.40039 -5.3613 l3.418 0 l-0.40039 5.3613 l-2.6172 0 z M233.093859375 10.3613 c-0.25391 -0.1237 -0.58916 -0.26372 -1.0059 -0.41997 s-0.88867 -0.30437 -1.416 -0.44434 s-1.1003 -0.25716 -1.7188 -0.35156 s-1.2532 -0.1416 -1.9043 -0.1416 c-0.52083 0 -0.96517 0.016279 -1.333 0.048828 s-0.67709 0.074863 -0.92774 0.12694 s-0.44922 0.1123 -0.5957 0.18066 s-0.25879 0.13835 -0.33691 0.20996 s-0.12858 0.14322 -0.15137 0.21483 s-0.03418 0.13672 -0.03418 0.19531 c0 0.19531 0.097656 0.36621 0.29297 0.5127 s0.46224 0.27669 0.80078 0.39063 s0.73242 0.22136 1.1816 0.32227 s0.9261 0.20508 1.4307 0.3125 s1.0254 0.22461 1.5625 0.35156 s1.0579 0.27507 1.5625 0.44434 s0.98145 0.36621 1.4307 0.59082 s0.8431 0.48665 1.1816 0.78613 s0.60547 0.64453 0.80078 1.0352 s0.29297 0.83659 0.29297 1.3379 c0 0.64453 -0.11394 1.1979 -0.3418 1.6602 s-0.53223 0.85286 -0.91309 1.1719 s-0.82194 0.57455 -1.3232 0.76661 s-1.0271 0.34018 -1.5771 0.44435 s-1.1067 0.17253 -1.6699 0.20508 s-1.0986 0.048828 -1.6064 0.048828 c-1.3281 0 -2.5569 -0.10905 -3.6865 -0.32715 s-2.1272 -0.4899 -2.9932 -0.81542 l0 -3.2031 c0.89192 0.49479 1.9092 0.88217 3.0518 1.1621 s2.3649 0.41992 3.667 0.41992 c0.76823 0 1.3948 -0.040693 1.8799 -0.12207 s0.86426 -0.18555 1.1377 -0.3125 s0.45898 -0.2653 0.55664 -0.41504 s0.14648 -0.29297 0.14648 -0.42969 c0 -0.21484 -0.097656 -0.40202 -0.29297 -0.56152 s-0.46224 -0.29947 -0.80078 -0.41991 s-0.73242 -0.23111 -1.1816 -0.33202 s-0.9261 -0.20182 -1.4307 -0.30272 s-1.0237 -0.20996 -1.5576 -0.32715 s-1.053 -0.25554 -1.5576 -0.41504 s-0.98145 -0.34505 -1.4307 -0.55664 s-0.8431 -0.46225 -1.1816 -0.75196 s-0.60547 -0.625 -0.80078 -1.0059 s-0.29297 -0.82194 -0.29297 -1.3232 c0 -0.59245 0.10417 -1.1035 0.3125 -1.5332 s0.4899 -0.7959 0.84472 -1.0986 s0.76497 -0.54851 1.2305 -0.7373 s0.95541 -0.33528 1.4697 -0.43945 s1.0352 -0.17578 1.5625 -0.21484 s1.0286 -0.058594 1.5039 -0.058594 c0.52083 0 1.0563 0.026045 1.6064 0.078125 s1.0921 0.12532 1.626 0.21973 s1.0498 0.20346 1.5479 0.32716 s0.95866 0.25391 1.3818 0.39063 l0 3.1055 z M291.33359375 20 l-9.0527 -9.2188 l0 9.2188 l-3.623 0 l0 -13.418 l3.9355 0 l9.0625 9.2578 l0 -9.2578 l3.6035 0 l0 13.418 l-3.9258 0 z M333.574328125 13.300799999999999 c0 1.1523 -0.21159 2.1696 -0.63477 3.0518 s-1.0286 1.6194 -1.8164 2.2119 s-1.7432 1.04 -2.8662 1.3428 s-2.3845 0.4541 -3.7842 0.4541 s-2.6644 -0.15137 -3.7939 -0.4541 s-2.0915 -0.75032 -2.8857 -1.3428 s-1.4063 -1.3298 -1.8359 -2.2119 s-0.64453 -1.8994 -0.64453 -3.0518 s0.21484 -2.1696 0.64453 -3.0518 s1.0417 -1.6194 1.8359 -2.2119 s1.7562 -1.04 2.8857 -1.3428 s2.3942 -0.4541 3.7939 -0.4541 s2.6611 0.15137 3.7842 0.4541 s2.0784 0.75032 2.8662 1.3428 s1.3933 1.3298 1.8164 2.2119 s0.63477 1.8994 0.63477 3.0518 z M329.912328125 13.300799999999999 c0 -0.5013 -0.079756 -1.001 -0.23926 -1.499 s-0.44271 -0.94563 -0.84961 -1.3428 s-0.96191 -0.7194 -1.665 -0.9668 s-1.5983 -0.37109 -2.6855 -0.37109 c-0.72917 0 -1.3704 0.056963 -1.9238 0.1709 s-1.0319 0.27182 -1.4355 0.47364 s-0.74219 0.43783 -1.0156 0.70802 s-0.49153 0.5599 -0.6543 0.86915 s-0.27832 0.63151 -0.34668 0.9668 s-0.10254 0.66568 -0.10254 0.99121 c0 0.33203 0.03418 0.66731 0.10254 1.0059 s0.18392 0.66244 0.34668 0.97169 s0.38086 0.59733 0.6543 0.86426 s0.61198 0.49967 1.0156 0.69823 s0.88216 0.35481 1.4355 0.46875 s1.1946 0.1709 1.9238 0.1709 c1.0872 0 1.9824 -0.1237 2.6855 -0.37109 s1.2581 -0.56966 1.665 -0.9668 s0.69011 -0.84473 0.84961 -1.3428 s0.23926 -0.99775 0.23926 -1.499 z M379.597628125 20 l0 -10.742 l-3.6035 1.123 l0 -2.6855 l3.6035 -1.1133 l3.6035 0 l0 13.418 l-3.6035 0 z M443.306875 19.08203 c-0.46875 0.19531 -0.94076 0.37102 -1.416 0.52727 s-0.9668 0.29134 -1.4746 0.40527 s-1.0433 0.2002 -1.6064 0.25879 s-1.167 0.087891 -1.8115 0.087891 c-1.3672 0 -2.6253 -0.14648 -3.7744 -0.43945 s-2.1387 -0.73405 -2.9688 -1.3232 s-1.4763 -1.3249 -1.9385 -2.207 s-0.69336 -1.9124 -0.69336 -3.0908 s0.23112 -2.2087 0.69336 -3.0908 s1.1084 -1.6179 1.9385 -2.207 s1.8196 -1.0303 2.9688 -1.3232 s2.4072 -0.43945 3.7744 -0.43945 c0.64453 0 1.2483 0.029297 1.8115 0.087891 s1.0986 0.14485 1.6064 0.25879 s0.99932 0.24902 1.4746 0.40527 s0.94727 0.33203 1.416 0.52734 l0 3.2617 c-0.37109 -0.20183 -0.76172 -0.40202 -1.1719 -0.60059 s-0.86263 -0.3776 -1.3574 -0.5371 s-1.0384 -0.28971 -1.6309 -0.39062 s-1.2598 -0.15137 -2.002 -0.15137 c-1.1394 0 -2.085 0.11719 -2.8369 0.35156 s-1.3525 0.54688 -1.8018 0.9375 s-0.76497 0.83821 -0.94727 1.3428 s-0.27344 1.0271 -0.27344 1.5674 c0 0.35808 0.039063 0.71127 0.11719 1.0596 s0.20833 0.67709 0.39063 0.98633 s0.41992 0.59408 0.71289 0.8545 s0.65755 0.48503 1.0938 0.67383 s0.94564 0.33691 1.5283 0.44434 s1.2549 0.16113 2.0166 0.16113 c0.74219 0 1.4095 -0.047197 2.002 -0.1416 s1.136 -0.21973 1.6309 -0.37598 s0.94727 -0.33366 1.3574 -0.53223 s0.80078 -0.40201 1.1719 -0.61034 l0 3.2617 l0 0 z M479.276890625 15.4785 c0 0.67058 -0.16599 1.3021 -0.49802 1.8945 s-0.83008 1.1101 -1.4941 1.5527 s-1.4925 0.79264 -2.4854 1.0498 s-2.1533 0.38574 -3.4814 0.38574 s-2.4919 -0.12858 -3.4912 -0.38574 s-1.8311 -0.60709 -2.4951 -1.0498 s-1.1621 -0.96028 -1.4941 -1.5527 s-0.49805 -1.2239 -0.49805 -1.8945 l0 -8.8965 l3.6133 0 l0 7.5977 c0 0.44922 0.056963 0.87402 0.1709 1.2744 s0.32878 0.75032 0.64453 1.0498 s0.75846 0.53711 1.3281 0.71289 s1.3103 0.26367 2.2217 0.26367 c0.90495 0 1.6406 -0.087891 2.207 -0.26367 s1.0075 -0.41341 1.3232 -0.71289 s0.52896 -0.64941 0.63964 -1.0498 s0.16602 -0.8252 0.16602 -1.2744 l0 -7.5977 l3.623 0 l0 8.8965 l0 0 z M503.75395 20 l-3.623 0 l0 -13.418 l9.082 0 c0.97656 0 1.805 0.10091 2.4854 0.30273 s1.2337 0.48828 1.6602 0.85938 s0.73568 0.81868 0.92774 1.3428 s0.28809 1.1084 0.28809 1.7529 c0 0.56641 -0.079756 1.0612 -0.23926 1.4844 s-0.37435 0.78613 -0.64453 1.0889 s-0.58432 0.55827 -0.94239 0.7666 s-0.73568 0.38086 -1.1328 0.51758 l4.3945 5.3027 l-4.2383 0 l-4.0625 -4.9414 l-3.9551 0 l0 4.9414 z M510.91225 10.8203 c0 -0.26042 -0.03418 -0.48174 -0.10254 -0.66403 s-0.18718 -0.33041 -0.35645 -0.44435 s-0.39551 -0.19694 -0.67871 -0.24902 s-0.6364 -0.078125 -1.0596 -0.078125 l-4.9609 0 l0 2.8711 l4.9609 0 c0.42317 0 0.77637 -0.026045 1.0596 -0.078125 s0.50944 -0.13509 0.67871 -0.24902 s0.28809 -0.26205 0.35645 -0.44435 s0.10254 -0.40365 0.10254 -0.66407 z M538.982465625 20 l-3.623 0 l0 -13.418 l9.082 0 c0.97656 0 1.805 0.10091 2.4854 0.30273 s1.2337 0.48828 1.6602 0.85938 s0.73568 0.81868 0.92774 1.3428 s0.28809 1.1084 0.28809 1.7529 c0 0.56641 -0.079756 1.0612 -0.23926 1.4844 s-0.37435 0.78613 -0.64453 1.0889 s-0.58432 0.55827 -0.94239 0.7666 s-0.73568 0.38086 -1.1328 0.51758 l4.3945 5.3027 l-4.2383 0 l-4.0625 -4.9414 l-3.9551 0 l0 4.9414 z M546.140765625 10.8203 c0 -0.26042 -0.03418 -0.48174 -0.10254 -0.66403 s-0.18718 -0.33041 -0.35645 -0.44435 s-0.39551 -0.19694 -0.67871 -0.24902 s-0.6364 -0.078125 -1.0596 -0.078125 l-4.9609 0 l0 2.8711 l4.9609 0 c0.42317 0 0.77637 -0.026045 1.0596 -0.078125 s0.50944 -0.13509 0.67871 -0.24902 s0.28809 -0.26205 0.35645 -0.44435 s0.10254 -0.40365 0.10254 -0.66407 z M570.58788125 20 l0 -13.418 l13.584 0 l0 2.8613 l-9.8633 0 l0 2.2168 l9.3555 0 l0 2.8613 l-9.3555 0 l0 2.6172 l10 0 l0 2.8613 l-13.721 0 z M617.23203125 20 l-9.0527 -9.2188 l0 9.2188 l-3.623 0 l0 -13.418 l3.9355 0 l9.0625 9.2578 l0 -9.2578 l3.6035 0 l0 13.418 l-3.9258 0 z M656.894765625 19.08203 c-0.46875 0.19531 -0.94076 0.37102 -1.416 0.52727 s-0.9668 0.29134 -1.4746 0.40527 s-1.0433 0.2002 -1.6064 0.25879 s-1.167 0.087891 -1.8115 0.087891 c-1.3672 0 -2.6253 -0.14648 -3.7744 -0.43945 s-2.1387 -0.73405 -2.9688 -1.3232 s-1.4763 -1.3249 -1.9385 -2.207 s-0.69336 -1.9124 -0.69336 -3.0908 s0.23112 -2.2087 0.69336 -3.0908 s1.1084 -1.6179 1.9385 -2.207 s1.8196 -1.0303 2.9688 -1.3232 s2.4072 -0.43945 3.7744 -0.43945 c0.64453 0 1.2483 0.029297 1.8115 0.087891 s1.0986 0.14485 1.6064 0.25879 s0.99932 0.24902 1.4746 0.40527 s0.94727 0.33203 1.416 0.52734 l0 3.2617 c-0.37109 -0.20183 -0.76172 -0.40202 -1.1719 -0.60059 s-0.86263 -0.3776 -1.3574 -0.5371 s-1.0384 -0.28971 -1.6309 -0.39062 s-1.2598 -0.15137 -2.002 -0.15137 c-1.1394 0 -2.085 0.11719 -2.8369 0.35156 s-1.3525 0.54688 -1.8018 0.9375 s-0.76497 0.83821 -0.94727 1.3428 s-0.27344 1.0271 -0.27344 1.5674 c0 0.35808 0.039063 0.71127 0.11719 1.0596 s0.20833 0.67709 0.39063 0.98633 s0.41992 0.59408 0.71289 0.8545 s0.65755 0.48503 1.0938 0.67383 s0.94564 0.33691 1.5283 0.44434 s1.2549 0.16113 2.0166 0.16113 c0.74219 0 1.4095 -0.047197 2.002 -0.1416 s1.136 -0.21973 1.6309 -0.37598 s0.94727 -0.33366 1.3574 -0.53223 s0.80078 -0.40201 1.1719 -0.61034 l0 3.2617 l0 0 z M685.44378125 14.5215 l0 5.4785 l-3.6133 0 l0 -5.4785 l-6.5039 -7.9395 l4.0625 0 l4.2578 5.4004 l4.2383 -5.4004 l4.0625 0 z M750.54909375 11.1621 c0 0.67058 -0.097656 1.2874 -0.29297 1.8506 s-0.50944 1.0481 -0.94238 1.4551 s-0.99443 0.72429 -1.6846 0.95215 s-1.53 0.3418 -2.5195 0.3418 l-6.0156 0 l0 4.2383 l-3.623 0 l0 -13.418 l9.6387 0 c0.98955 0 1.8294 0.1123 2.5195 0.33691 s1.2517 0.54036 1.6846 0.94727 s0.74707 0.8903 0.94238 1.4502 s0.29297 1.1751 0.29297 1.8457 z M746.88709375 11.2207 c0 -0.3125 -0.043945 -0.58104 -0.13184 -0.80565 s-0.23274 -0.40853 -0.43457 -0.55176 s-0.4655 -0.24902 -0.79102 -0.31738 s-0.72591 -0.10254 -1.2012 -0.10254 l-5.2344 0 l0 3.457 l5.2344 0 c0.47526 0 0.87565 -0.027666 1.2012 -0.083008 s0.58919 -0.14975 0.79102 -0.28321 s0.34668 -0.30762 0.43457 -0.52246 s0.13184 -0.47852 0.13184 -0.79102 z M770.29881875 20 l0 -13.418 l3.623 0 l0 10.479 l9.7949 0 l0 2.9395 l-13.418 0 z M814.15053125 17.4609 l-7.4805 0 l-1.2598 2.5391 l-4.043 0 l7.0215 -13.418 l4.043 0 l7.0215 13.418 l-4.043 0 z M807.96873125 14.8437 l4.9023 0 l-2.4414 -4.9414 z M845.921834375 9.502 l0 10.498 l-3.623 0 l0 -10.498 l-5.6934 0 l0 -2.9199 l15.02 0 l0 2.9199 l-5.7031 0 z M874.392621875 9.443 l0 2.334 l8.7207 0 l0 2.8613 l-8.7207 0 l0 5.3613 l-3.623 0 l0 -13.418 l12.822 0 l0 2.8613 l-9.1992 0 z M920.80284375 13.300799999999999 c0 1.1523 -0.21159 2.1696 -0.63477 3.0518 s-1.0286 1.6194 -1.8164 2.2119 s-1.7432 1.04 -2.8662 1.3428 s-2.3845 0.4541 -3.7842 0.4541 s-2.6644 -0.15137 -3.7939 -0.4541 s-2.0915 -0.75032 -2.8857 -1.3428 s-1.4063 -1.3298 -1.8359 -2.2119 s-0.64453 -1.8994 -0.64453 -3.0518 s0.21484 -2.1696 0.64453 -3.0518 s1.0417 -1.6194 1.8359 -2.2119 s1.7562 -1.04 2.8857 -1.3428 s2.3942 -0.4541 3.7939 -0.4541 s2.6611 0.15137 3.7842 0.4541 s2.0784 0.75032 2.8662 1.3428 s1.3933 1.3298 1.8164 2.2119 s0.63477 1.8994 0.63477 3.0518 z M917.14084375 13.300799999999999 c0 -0.5013 -0.079756 -1.001 -0.23926 -1.499 s-0.44271 -0.94563 -0.84961 -1.3428 s-0.96191 -0.7194 -1.665 -0.9668 s-1.5983 -0.37109 -2.6855 -0.37109 c-0.72917 0 -1.3704 0.056963 -1.9238 0.1709 s-1.0319 0.27182 -1.4355 0.47364 s-0.74219 0.43783 -1.0156 0.70802 s-0.49153 0.5599 -0.6543 0.86915 s-0.27832 0.63151 -0.34668 0.9668 s-0.10254 0.66568 -0.10254 0.99121 c0 0.33203 0.03418 0.66731 0.10254 1.0059 s0.18392 0.66244 0.34668 0.97169 s0.38086 0.59733 0.6543 0.86426 s0.61198 0.49967 1.0156 0.69823 s0.88216 0.35481 1.4355 0.46875 s1.1946 0.1709 1.9238 0.1709 c1.0872 0 1.9824 -0.1237 2.6855 -0.37109 s1.2581 -0.56966 1.665 -0.9668 s0.69011 -0.84473 0.84961 -1.3428 s0.23926 -0.99775 0.23926 -1.499 z M944.478559375 20 l-3.623 0 l0 -13.418 l9.082 0 c0.97656 0 1.805 0.10091 2.4854 0.30273 s1.2337 0.48828 1.6602 0.85938 s0.73568 0.81868 0.92774 1.3428 s0.28809 1.1084 0.28809 1.7529 c0 0.56641 -0.079756 1.0612 -0.23926 1.4844 s-0.37435 0.78613 -0.64453 1.0889 s-0.58432 0.55827 -0.94239 0.7666 s-0.73568 0.38086 -1.1328 0.51758 l4.3945 5.3027 l-4.2383 0 l-4.0625 -4.9414 l-3.9551 0 l0 4.9414 z M951.636859375 10.8203 c0 -0.26042 -0.03418 -0.48174 -0.10254 -0.66403 s-0.18718 -0.33041 -0.35645 -0.44435 s-0.39551 -0.19694 -0.67871 -0.24902 s-0.6364 -0.078125 -1.0596 -0.078125 l-4.9609 0 l0 2.8711 l4.9609 0 c0.42317 0 0.77637 -0.026045 1.0596 -0.078125 s0.50944 -0.13509 0.67871 -0.24902 s0.28809 -0.26205 0.35645 -0.44435 s0.10254 -0.40365 0.10254 -0.66407 z M993.144375 20 l0 -9.4238 l-4.9805 9.4238 l-3.4766 0 l-4.9805 -9.4238 l0 9.4238 l-3.623 0 l0 -13.418 l4.9219 0 l5.4199 10.156 l5.4199 -10.156 l4.9023 0 l0 13.418 l-3.6035 0 z"/></g>
			</g>
		</svg>
	